<svg xmlns="http://www.w3.org/2000/svg" viewBox="0 0 100 100" role="img" aria-label="Amtrak passenger car icon">
  <defs>
    <linearGradient id="car" x1="0" y1="0" x2="0" y2="1">
      <stop offset="0" stop-color="#edf2f6"/>
      <stop offset="1" stop-color="#c6d0d8"/>
    </linearGradient>
    <linearGradient id="line" x1="0" y1="0" x2="1" y2="0">
      <stop offset="0" stop-color="#1f4f75"/>
      <stop offset="1" stop-color="#2f79ad"/>
    </linearGradient>
  </defs>

  <rect x="10" y="24" width="80" height="52" rx="9" fill="url(#car)" stroke="#7f8c98" stroke-width="2"/>
  <rect x="12" y="44" width="76" height="10" fill="url(#line)"/>
  <rect x="14" y="31" width="10" height="10" rx="1.5" fill="#d9edf8"/>
  <rect x="27" y="31" width="10" height="10" rx="1.5" fill="#d9edf8"/>
  <rect x="40" y="31" width="10" height="10" rx="1.5" fill="#d9edf8"/>
  <rect x="53" y="31" width="10" height="10" rx="1.5" fill="#d9edf8"/>
  <rect x="66" y="31" width="10" height="10" rx="1.5" fill="#d9edf8"/>
  <rect x="79" y="31" width="8" height="10" rx="1.5" fill="#d9edf8"/>
  <rect x="12" y="58" width="76" height="6" fill="#bd3328"/>
  <circle cx="24" cy="77" r="5" fill="#2d3740"/>
  <circle cx="50" cy="77" r="5" fill="#2d3740"/>
  <circle cx="76" cy="77" r="5" fill="#2d3740"/>
</svg>
