<svg xmlns="http://www.w3.org/2000/svg" viewBox="0 0 100 100" role="img" aria-label="Skis pickup">
  <defs>
    <linearGradient id="tile" x1="0" y1="0" x2="0" y2="1">
      <stop offset="0" stop-color="#b9e2f7"/>
      <stop offset="1" stop-color="#7fc2e7"/>
    </linearGradient>
    <linearGradient id="skiBlue" x1="0" y1="0" x2="0" y2="1">
      <stop offset="0" stop-color="#1d5b97"/>
      <stop offset="1" stop-color="#1fa8e1"/>
    </linearGradient>
  </defs>

  <rect x="4" y="4" width="92" height="92" rx="18" fill="url(#tile)"/>

  <path d="M24 14H33V78Q33 92 24 92Q15 92 15 78V24Q15 14 24 14Z" fill="url(#skiBlue)"/>
  <path d="M45 14H54V78Q54 92 45 92Q36 92 36 78V24Q36 14 45 14Z" fill="url(#skiBlue)"/>

  <rect x="15" y="42" width="18" height="5" fill="#b2bfce"/>
  <rect x="36" y="42" width="18" height="5" fill="#b2bfce"/>

  <rect x="24" y="56" width="7" height="16" rx="2" fill="#1a9de0"/>
  <rect x="45" y="56" width="7" height="16" rx="2" fill="#1a9de0"/>

  <line x1="66" y1="26" x2="66" y2="77" stroke="#8ea4b9" stroke-width="2"/>
  <line x1="79" y1="26" x2="79" y2="77" stroke="#8ea4b9" stroke-width="2"/>
  <ellipse cx="66" cy="24" rx="4" ry="6" fill="none" stroke="#ba2a20" stroke-width="2"/>
  <ellipse cx="79" cy="24" rx="4" ry="6" fill="none" stroke="#ba2a20" stroke-width="2"/>
  <path d="M62 78L66 73L70 78" fill="none" stroke="#5fa5d7" stroke-width="1.8" stroke-linecap="round"/>
  <path d="M75 78L79 73L83 78" fill="none" stroke="#5fa5d7" stroke-width="1.8" stroke-linecap="round"/>
</svg>
