<svg xmlns="http://www.w3.org/2000/svg" viewBox="0 0 100 100" role="img" aria-label="Maple syrup jug pickup">
  <defs>
    <linearGradient id="tile" x1="0" y1="0" x2="0" y2="1">
      <stop offset="0" stop-color="#f3dfb8"/>
      <stop offset="1" stop-color="#d7bb8d"/>
    </linearGradient>
    <linearGradient id="jug" x1="0" y1="0" x2="0" y2="1">
      <stop offset="0" stop-color="#efe1c8"/>
      <stop offset="1" stop-color="#cfbea2"/>
    </linearGradient>
    <linearGradient id="label" x1="0" y1="0" x2="1" y2="0">
      <stop offset="0" stop-color="#c78f3b"/>
      <stop offset="1" stop-color="#b67a2f"/>
    </linearGradient>
  </defs>

  <rect x="4" y="4" width="92" height="92" rx="18" fill="url(#tile)"/>

  <ellipse cx="49" cy="18" rx="18" ry="4" fill="#2b2b2f" opacity="0.8"/>
  <rect x="30" y="14" width="38" height="10" rx="3" fill="#16171b"/>

  <path d="M24 33C24 27 29 24 35 24H61C67 24 72 27 72 33C72 38 67 41 64 44C72 49 78 58 78 70C78 84 66 92 50 92C34 92 22 84 22 70C22 58 28 49 36 44C31 41 24 38 24 33Z" fill="url(#jug)" stroke="#b8a382" stroke-width="2"/>

  <path d="M65 34C73 34 77 39 77 47V67C77 72 74 75 70 75C67 75 65 72 65 68V55C65 51 64 47 60 47H57V34Z" fill="#d8c7ab" stroke="#b8a382" stroke-width="1.8"/>

  <rect x="24" y="64" width="52" height="18" rx="5" fill="url(#label)"/>
  <path d="M50 66L53 71L50 73L47 71Z" fill="#9f6325"/>

  <ellipse cx="46" cy="51" rx="7" ry="6" fill="#ffffff" opacity="0.16"/>
</svg>
